<?xml version="1.0" encoding="UTF-8" standalone="no"?>
<!-- Created with Inkscape (http://www.inkscape.org/) -->

<svg
   width="32"
   height="32"
   viewBox="0 0 8.4666665 8.4666666"
   version="1.1"
   id="svg5"
   xml:space="preserve"
   inkscape:version="1.2.2 (732a01da63, 2022-12-09)"
   sodipodi:docname="upper.svg"
   xmlns:inkscape="http://www.inkscape.org/namespaces/inkscape"
   xmlns:sodipodi="http://sodipodi.sourceforge.net/DTD/sodipodi-0.dtd"
   xmlns:xlink="http://www.w3.org/1999/xlink"
   xmlns="http://www.w3.org/2000/svg"
   xmlns:svg="http://www.w3.org/2000/svg"><sodipodi:namedview
     id="namedview7"
     pagecolor="#ffffff"
     bordercolor="#000000"
     borderopacity="0.25"
     inkscape:showpageshadow="2"
     inkscape:pageopacity="0.0"
     inkscape:pagecheckerboard="0"
     inkscape:deskcolor="#d1d1d1"
     inkscape:document-units="mm"
     showgrid="false"
     inkscape:zoom="7.2407734"
     inkscape:cx="17.401456"
     inkscape:cy="29.554854"
     inkscape:window-width="1366"
     inkscape:window-height="697"
     inkscape:window-x="-8"
     inkscape:window-y="-8"
     inkscape:window-maximized="1"
     inkscape:current-layer="layer1" /><defs
     id="defs2"><linearGradient
       inkscape:collect="always"
       id="linearGradient2072"><stop
         style="stop-color:#ff00d1;stop-opacity:1;"
         offset="0"
         id="stop2068" /><stop
         style="stop-color:#ff9f01;stop-opacity:1;"
         offset="1"
         id="stop2070" /></linearGradient><linearGradient
       inkscape:collect="always"
       xlink:href="#linearGradient2072"
       id="linearGradient2074"
       x1="0.14616281"
       y1="2.2073002e-07"
       x2="8.4043741"
       y2="8.4409142"
       gradientUnits="userSpaceOnUse" /></defs><g
     inkscape:label="Capa 1"
     inkscape:groupmode="layer"
     id="layer1"><rect
       style="fill:url(#linearGradient2074);fill-opacity:1;fill-rule:evenodd;stroke-width:0.426508;stroke-linecap:square;stroke-linejoin:round;paint-order:stroke markers fill"
       id="rect1995"
       width="8.4666662"
       height="8.4666672"
       x="0"
       y="0"
       ry="1.205845" /><path
       id="path356"
       style="fill:#ffffff;fill-opacity:1;fill-rule:evenodd;stroke-width:0.867001;paint-order:stroke fill markers"
       d="M 4.6410596,0.69427436 C 3.08443,1.4684693 2.7500399,2.83496 3.1137873,4.5699436 2.6104945,4.207086 2.5586835,3.5979471 2.5267091,2.9780064 1.7011493,3.7329097 1.4851088,4.698844 1.796282,5.8472315 2.2954968,7.1613359 3.2035993,8.3320533 5.2532528,7.6836459 6.3474376,7.1691706 7.0085185,6.3499854 6.9240401,5.0060806 6.8443961,4.0409631 6.4892562,3.153545 5.2121175,2.526183 4.3637234,1.6463353 4.5641236,1.1955787 4.6410596,0.69427436 Z M 4.9335138,3.38761 C 5.3495923,3.5597579 5.7683007,3.6380775 6.1633245,4.5681915 6.4378834,5.475385 6.2097976,6.2892493 4.958128,6.9130011 3.997163,7.2003318 3.4559672,6.8755176 3.0149949,6.404522 3.8144725,6.2074016 4.3989988,5.7794875 4.6091851,4.9494258 4.7005197,5.5549374 4.5338622,5.8250701 4.4178592,6.1610463 5.5170301,5.558656 5.5563166,4.217976 4.9335138,3.38761 Z" /></g></svg>
